# xmcd CD database file
# Copyright (C) 1997 Ti Kan
# 
# Track frame offsets:
#     150
#     14977
#     34365
#     61525
#     72187
#     93177
#     113932
#     130520
#     147820
#     168345
#     193000
#     208212
#     223880
#     244260
#     262800
#     289465
# 
# Disc length: 4117 seconds
# 
# Revision: 1
# Processed by: cddbd v1.4b41PL1 Copyright (c) Steve Scherf et al.
# Submitted via: DiscPlay 4.0.3
# 
DISCID=f7101310
DTITLE=The Tony D. Band - Special Compilation
DYEAR=1900
DGENRE=
TTITLE0=Ride Till I Die
TTITLE1=Hot Little Mama
TTITLE2=Everybody Wants To Get To Heaven
TTITLE3=Talk To Your Daughter
TTITLE4=Amigo's Fandango
TTITLE5=Wild About You
TTITLE6=Trouble In Paradise
TTITLE7=No Turning Back
TTITLE8=Do The Right Thing
TTITLE9=The Right Kind Of Crazy
TTITLE10=I'm Gonna Get To You
TTITLE11=You Belong To Me
TTITLE12=Sugar Coated Love
TTITLE13=You Don't See The Blues Like Me
TTITLE14=Not A Day Goes By
TTITLE15=Wonderful Site
EXTD=
EXTT0=
EXTT1=
EXTT2=
EXTT3=
EXTT4=
EXTT5=
EXTT6=
EXTT7=
EXTT8=
EXTT9=
EXTT10=
EXTT11=
EXTT12=
EXTT13=
EXTT14=
EXTT15=
PLAYORDER=
